<svg width="92" height="92" viewBox="0 0 92 92" fill="none" xmlns="http://www.w3.org/2000/svg">
<circle cx="46" cy="46" r="46" fill="#C4C4C4"/>
<path fill-rule="evenodd" clip-rule="evenodd" d="M29.646 7.22461C37.481 11.239 43 20.8706 43 32.1138C43 32.4514 42.9949 32.7876 42.9851 33.1223C42.9949 33.2026 43 33.2842 43 33.3672V57C43 58.1047 42.1045 59 41 59H21.5H2C0.895508 59 0 58.1047 0 57V33.3672C0 33.2842 0.00512695 33.2026 0.0148926 33.1223C0.00512695 32.7876 0 32.4514 0 32.1138C0 20.8706 5.51904 11.2393 13.3538 7.22485C13.3479 7.11694 13.3447 7.0083 13.3447 6.89917C13.3447 3.08887 16.9958 0 21.5 0C26.0039 0 29.655 3.08887 29.655 6.89917C29.655 7.0083 29.6519 7.1167 29.646 7.22461ZM15.4548 6.30518C16.6658 3.90991 18.9197 2.2998 21.5002 2.2998C24.0806 2.2998 26.3345 3.90991 27.5454 6.30518C25.6277 5.60376 23.5989 5.22778 21.5 5.22778C19.4011 5.22778 17.3726 5.604 15.4548 6.30518ZM7.41382 38.8481C7.41382 37.1914 8.75708 35.8481 10.4138 35.8481H32.5862C34.2432 35.8481 35.5862 37.1914 35.5862 38.8481V51.519C35.5862 53.1758 34.2432 54.519 32.5862 54.519H10.4138C8.75708 54.519 7.41382 53.1758 7.41382 51.519V38.8481ZM15.5322 19.7268C15.1431 20.1189 15.1431 20.7542 15.5322 21.1462L20.9382 26.592C21.3271 26.9839 21.958 26.9839 22.3472 26.592L27.7532 21.1462C28.1423 20.7542 28.1423 20.1189 27.7532 19.7268L22.3472 14.281C21.958 13.8892 21.3271 13.8892 20.9382 14.281L15.5322 19.7268Z" transform="translate(26 14)" fill="white"/>
<path d="M5.64299 26.4998C0.514017 21.7721 -3.95143 16.0087 5.64284 0V4.99976C1.43245 18.9891 4.5977 22.9845 5.64299 26.4998Z" transform="translate(19 46)" fill="white"/>
<path d="M5.64008 26.5C0.513751 21.7723 -3.94939 16.0089 5.63992 0V4.9998C1.43171 18.9893 4.59533 22.9847 5.64008 26.5Z" transform="translate(75.6399 46) scale(-1 1)" fill="white"/>
</svg>
